Coordinates
version=1
nRows=6
nColumns=36
inDegrees=yes

Units are S.I. units (second, meters, Newtons, ...)
If the header above contains a line with 'inDegrees', this indicates whether rotational values are in degrees (yes) or radians (no).

endheader
time	pelvis_tilt	pelvis_list	pelvis_rotation	pelvis_tx	pelvis_ty	pelvis_tz	hip_flexion_r	hip_adduction_r	hip_rotation_r	knee_angle_r	knee_angle_r_beta	ankle_angle_r	subtalar_angle_r	mtp_angle_r	hip_flexion_l	hip_adduction_l	hip_rotation_l	knee_angle_l	knee_angle_l_beta	ankle_angle_l	subtalar_angle_l	mtp_angle_l	lumbar_extension	lumbar_bending	lumbar_rotation	arm_flex_r	arm_add_r	arm_rot_r	elbow_flex_r	pro_sup_r	arm_flex_l	arm_add_l	arm_rot_l	elbow_flex_l	pro_sup_l
      3.86250000	     -8.33495489	     -1.46587424	      2.48198200	      0.28153715	      0.95162227	     -0.06810245	     12.91733546	     -2.67350149	     -5.71630419	      9.09733431	      0.15877844	      1.16651948	    -23.16435273	     -7.49999987	     10.78256572	     -4.17817575	      1.03092337	      6.23810119	      0.10887540	      3.37862542	    -14.31114831	     -7.49999987	     -2.41535460	      0.50036737	     -2.85266848	     10.49844813	     -9.12511497	     19.06149486	    111.30494051	     89.11716483	     20.64039761	    -11.77416548	     34.22779387	    114.45438794	     70.70915925
      3.86666670	     -8.36566992	     -1.50580632	      2.44700457	      0.28108104	      0.95210229	     -0.06730498	     12.68716619	     -2.52210102	     -5.61487402	      8.55293547	      0.14927688	      1.26149763	    -22.76982916	     -7.49999987	     10.50958081	     -4.22585684	      0.99685708	      5.62146480	      0.09811307	      3.26530177	    -14.18784759	     -7.49999987	     -2.26773537	      0.47358390	     -2.84044124	     10.41771454	     -9.18375446	     19.27274710	    111.39829152	     87.98625718	     20.62224982	    -11.92689348	     34.38510177	    114.56137130	     70.25604694
      3.87083330	     -8.32812479	     -1.53987008	      2.40401843	      0.28130546	      0.94916649	     -0.06803160	     12.38647339	     -2.42488402	     -5.55273076	      8.05537379	      0.14059280	      1.28241891	    -22.67791597	     -7.49999987	     10.14080546	     -4.26377804	      0.84209957	      4.96105236	      0.08658670	      3.21030307	    -14.03532796	     -7.49999987	     -2.19014064	      0.51896403	     -2.76125427	     10.45973746	     -9.28998599	     19.38571833	    111.49566919	     87.15700883	     20.64501637	    -12.03943490	     34.39886378	    114.60081396	     69.93026183
      3.87500000	     -8.44260911	     -1.57068829	      2.37027248	      0.28151008	      0.95046376	     -0.06758727	     12.26818984	     -2.30377840	     -5.46149577	      7.57630790	      0.13223152	      1.20324433	    -22.64211511	     -7.49999987	      9.98881697	     -4.30287533	      0.76588465	      4.40703919	      0.07691734	      3.14262329	    -13.89844476	     -7.49999987	     -1.93321562	      0.51618650	     -2.67026370	     10.40143393	     -9.36479624	     19.49546599	    111.53536886	     85.91866932	     20.49664953	    -12.16684446	     34.45462622	    114.53638692	     69.36048406
      3.87916670	     -8.50115347	     -1.61389991	      2.31246789	      0.28087123	      0.95026981	     -0.06830307	     12.09056928	     -2.21346890	     -5.29564443	      7.08950928	      0.12373528	      0.97014477	    -22.78529241	     -7.49999987	      9.75289908	     -4.34162557	      0.55511073	      3.80821565	      0.06646590	      3.11169566	    -13.51834357	     -7.49999987	     -1.74579950	      0.58883908	     -2.47850235	     10.20732381	     -9.39202601	     19.06886290	    111.51774826	     91.13931829	     20.47882880	    -12.17850476	     34.32616038	    114.23658512	     71.90028840
      3.88333330	     -8.52867784	     -1.63680933	      2.29119887	      0.28055572	      0.94883673	     -0.06853997	     11.88943779	     -2.17745942	     -5.35406394	      6.62369889	      0.11560535	      0.78307544	    -22.83249302	     -7.49999987	      9.50976704	     -4.34082307	      0.44617702	      3.28171732	      0.05727677	      3.06711716	    -13.30194748	     -7.49999987	     -1.60221262	      0.63359726	     -2.43545082	     10.14810003	     -9.47576329	     19.13624016	    111.52163143	     90.55371869	     20.40676837	    -12.25784137	     34.23657699	    114.20645465	     71.58765309
